<svg width="15" height="15" viewBox="0 0 9 8" fill="none" xmlns="http://www.w3.org/2000/svg">
<path d="M8.91069 0.794756C8.96809 0.846469 9.00033 0.91651 9.00033 0.989529C9.00033 1.06255 8.96809 1.13259 8.91069 1.1843L8.26984 1.76034L7.04099 0.656815L7.68184 0.0807744C7.73945 0.0290546 7.81757 0 7.89904 0C7.9805 0 8.05862 0.0290546 8.11623 0.0807744L8.91069 0.794204V0.794756ZM7.83544 2.14989L6.60659 1.04636L2.42052 4.80608C2.3867 4.83644 2.36125 4.87347 2.34617 4.91422L1.85156 6.24618C1.84259 6.27046 1.84132 6.2965 1.84788 6.3214C1.85445 6.34629 1.8686 6.36906 1.88874 6.38715C1.90889 6.40524 1.93424 6.41794 1.96196 6.42384C1.98968 6.42973 2.01868 6.42859 2.04572 6.42054L3.52894 5.97637C3.57426 5.96299 3.6155 5.94032 3.64937 5.91015L7.83544 2.15044V2.14989Z" fill="#C2C2C4"/>
<path fill-rule="evenodd" clip-rule="evenodd" d="M0 7.17317C0 7.39267 0.0971008 7.60319 0.269941 7.7584C0.442782 7.91361 0.677204 8.00081 0.921637 8.00081H7.68031C7.92474 8.00081 8.15916 7.91361 8.332 7.7584C8.50484 7.60319 8.60194 7.39267 8.60194 7.17317V3.86259C8.60194 3.78942 8.56958 3.71925 8.51196 3.66751C8.45435 3.61577 8.37621 3.5867 8.29473 3.5867C8.21325 3.5867 8.13511 3.61577 8.0775 3.66751C8.01989 3.71925 7.98752 3.78942 7.98752 3.86259V7.17317C7.98752 7.24633 7.95515 7.31651 7.89754 7.36824C7.83993 7.41998 7.76178 7.44905 7.68031 7.44905H0.921637C0.840159 7.44905 0.762018 7.41998 0.704405 7.36824C0.646792 7.31651 0.614425 7.24633 0.614425 7.17317V1.10377C0.614425 1.0306 0.646792 0.960428 0.704405 0.90869C0.762018 0.856953 0.840159 0.827886 0.921637 0.827886H4.9154C4.99687 0.827886 5.07502 0.79882 5.13263 0.747083C5.19024 0.695345 5.22261 0.625173 5.22261 0.552005C5.22261 0.478836 5.19024 0.408665 5.13263 0.356927C5.07502 0.305189 4.99687 0.276123 4.9154 0.276123H0.921637C0.677204 0.276123 0.442782 0.363321 0.269941 0.518535C0.0971008 0.673748 0 0.884263 0 1.10377V7.17317Z" fill="#C2C2C4"/>
</svg>
