<svg width="115" height="37" viewBox="0 0 115 37" fill="none" xmlns="http://www.w3.org/2000/svg">
<path d="M38.0781 9.4433V10.162C38.0781 11.0162 37.9714 11.7818 37.7578 12.4589C37.5443 13.136 37.237 13.7115 36.8359 14.1855C36.4349 14.6594 35.9531 15.0214 35.3906 15.2714C34.8333 15.5214 34.2083 15.6464 33.5156 15.6464C32.8438 15.6464 32.2266 15.5214 31.6641 15.2714C31.1068 15.0214 30.6224 14.6594 30.2109 14.1855C29.8047 13.7115 29.4896 13.136 29.2656 12.4589C29.0417 11.7818 28.9297 11.0162 28.9297 10.162V9.4433C28.9297 8.58913 29.0391 7.82611 29.2578 7.15424C29.4818 6.47715 29.7969 5.90163 30.2031 5.42767C30.6094 4.94851 31.0911 4.58392 31.6484 4.33392C32.2109 4.08392 32.8281 3.95892 33.5 3.95892C34.1927 3.95892 34.8177 4.08392 35.375 4.33392C35.9375 4.58392 36.4193 4.94851 36.8203 5.42767C37.2266 5.90163 37.5365 6.47715 37.75 7.15424C37.9688 7.82611 38.0781 8.58913 38.0781 9.4433ZM36.5859 10.162V9.42767C36.5859 8.75059 36.5156 8.15163 36.375 7.6308C36.2396 7.10997 36.0391 6.67247 35.7734 6.3183C35.5078 5.96413 35.1823 5.6959 34.7969 5.51361C34.4167 5.33132 33.9844 5.24017 33.5 5.24017C33.0312 5.24017 32.6068 5.33132 32.2266 5.51361C31.8516 5.6959 31.5286 5.96413 31.2578 6.3183C30.9922 6.67247 30.7865 7.10997 30.6406 7.6308C30.4948 8.15163 30.4219 8.75059 30.4219 9.42767V10.162C30.4219 10.8443 30.4948 11.4485 30.6406 11.9745C30.7865 12.4954 30.9948 12.9355 31.2656 13.2949C31.5417 13.649 31.8672 13.9173 32.2422 14.0995C32.6224 14.2818 33.0469 14.373 33.5156 14.373C34.0052 14.373 34.4401 14.2818 34.8203 14.0995C35.2005 13.9173 35.5208 13.649 35.7812 13.2949C36.0469 12.9355 36.2474 12.4954 36.3828 11.9745C36.5182 11.4485 36.5859 10.8443 36.5859 10.162ZM41.5625 8.84174V15.4902H40.1172V7.03705H41.4844L41.5625 8.84174ZM41.2188 10.9433L40.6172 10.9199C40.6224 10.3417 40.7083 9.80788 40.875 9.3183C41.0417 8.82351 41.276 8.39382 41.5781 8.02924C41.8802 7.66465 42.2396 7.3834 42.6562 7.18549C43.0781 6.98236 43.5443 6.8808 44.0547 6.8808C44.4714 6.8808 44.8464 6.93809 45.1797 7.05267C45.513 7.16205 45.7969 7.33913 46.0312 7.58392C46.2708 7.82872 46.4531 8.14642 46.5781 8.53705C46.7031 8.92247 46.7656 9.39382 46.7656 9.95111V15.4902H45.3125V9.93549C45.3125 9.49278 45.2474 9.13861 45.1172 8.87299C44.987 8.60215 44.7969 8.40684 44.5469 8.28705C44.2969 8.16205 43.9896 8.09955 43.625 8.09955C43.2656 8.09955 42.9375 8.17507 42.6406 8.32611C42.349 8.47715 42.0964 8.68549 41.8828 8.95111C41.6745 9.21674 41.5104 9.52142 41.3906 9.86517C41.276 10.2037 41.2188 10.5631 41.2188 10.9433ZM50.5312 3.49017V15.4902H49.0781V3.49017H50.5312ZM54.4219 7.03705V15.4902H52.9688V7.03705H54.4219ZM52.8594 4.79486C52.8594 4.56049 52.9297 4.36257 53.0703 4.20111C53.2161 4.03965 53.4297 3.95892 53.7109 3.95892C53.987 3.95892 54.1979 4.03965 54.3438 4.20111C54.4948 4.36257 54.5703 4.56049 54.5703 4.79486C54.5703 5.01882 54.4948 5.21153 54.3438 5.37299C54.1979 5.52924 53.987 5.60736 53.7109 5.60736C53.4297 5.60736 53.2161 5.52924 53.0703 5.37299C52.9297 5.21153 52.8594 5.01882 52.8594 4.79486ZM58.1875 8.84174V15.4902H56.7422V7.03705H58.1094L58.1875 8.84174ZM57.8438 10.9433L57.2422 10.9199C57.2474 10.3417 57.3333 9.80788 57.5 9.3183C57.6667 8.82351 57.901 8.39382 58.2031 8.02924C58.5052 7.66465 58.8646 7.3834 59.2812 7.18549C59.7031 6.98236 60.1693 6.8808 60.6797 6.8808C61.0964 6.8808 61.4714 6.93809 61.8047 7.05267C62.138 7.16205 62.4219 7.33913 62.6562 7.58392C62.8958 7.82872 63.0781 8.14642 63.2031 8.53705C63.3281 8.92247 63.3906 9.39382 63.3906 9.95111V15.4902H61.9375V9.93549C61.9375 9.49278 61.8724 9.13861 61.7422 8.87299C61.612 8.60215 61.4219 8.40684 61.1719 8.28705C60.9219 8.16205 60.6146 8.09955 60.25 8.09955C59.8906 8.09955 59.5625 8.17507 59.2656 8.32611C58.974 8.47715 58.7214 8.68549 58.5078 8.95111C58.2995 9.21674 58.1354 9.52142 58.0156 9.86517C57.901 10.2037 57.8438 10.5631 57.8438 10.9433ZM69.0938 15.6464C68.5052 15.6464 67.9714 15.5475 67.4922 15.3495C67.0182 15.1464 66.6094 14.8626 66.2656 14.498C65.9271 14.1334 65.6667 13.7011 65.4844 13.2011C65.3021 12.7011 65.2109 12.1542 65.2109 11.5605V11.2324C65.2109 10.5449 65.3125 9.93288 65.5156 9.39642C65.7188 8.85476 65.9948 8.39642 66.3438 8.02142C66.6927 7.64642 67.0885 7.36257 67.5312 7.16986C67.974 6.97715 68.4323 6.8808 68.9062 6.8808C69.5104 6.8808 70.0312 6.98497 70.4688 7.1933C70.9115 7.40163 71.2734 7.6933 71.5547 8.0683C71.8359 8.43809 72.0443 8.87559 72.1797 9.3808C72.3151 9.8808 72.3828 10.4277 72.3828 11.0214V11.6699H66.0703V10.4902H70.9375V10.3808C70.9167 10.0058 70.8385 9.64122 70.7031 9.28705C70.5729 8.93288 70.3646 8.64122 70.0781 8.41205C69.7917 8.18288 69.401 8.0683 68.9062 8.0683C68.5781 8.0683 68.276 8.13861 68 8.27924C67.724 8.41465 67.487 8.61778 67.2891 8.88861C67.0911 9.15944 66.9375 9.49017 66.8281 9.8808C66.7188 10.2714 66.6641 10.7219 66.6641 11.2324V11.5605C66.6641 11.9615 66.7188 12.3391 66.8281 12.6933C66.9427 13.0423 67.1068 13.3495 67.3203 13.6152C67.5391 13.8808 67.8021 14.0891 68.1094 14.2402C68.4219 14.3912 68.776 14.4667 69.1719 14.4667C69.6823 14.4667 70.1146 14.3626 70.4688 14.1542C70.8229 13.9459 71.1328 13.6673 71.3984 13.3183L72.2734 14.0136C72.0911 14.2897 71.8594 14.5527 71.5781 14.8027C71.2969 15.0527 70.9505 15.2558 70.5391 15.412C70.1328 15.5683 69.651 15.6464 69.0938 15.6464Z" fill="white"/>
<path d="M33.5234 21.5034V32.8784H32.0391V21.5034H33.5234ZM37.1797 21.5034V22.7377H28.3906V21.5034H37.1797ZM37.4844 28.7455V28.5659C37.4844 27.9565 37.5729 27.3914 37.75 26.8705C37.9271 26.3445 38.1823 25.8888 38.5156 25.5034C38.849 25.1127 39.2526 24.8106 39.7266 24.5971C40.2005 24.3784 40.7318 24.269 41.3203 24.269C41.9141 24.269 42.4479 24.3784 42.9219 24.5971C43.401 24.8106 43.8073 25.1127 44.1406 25.5034C44.4792 25.8888 44.737 26.3445 44.9141 26.8705C45.0911 27.3914 45.1797 27.9565 45.1797 28.5659V28.7455C45.1797 29.3549 45.0911 29.92 44.9141 30.4409C44.737 30.9617 44.4792 31.4174 44.1406 31.808C43.8073 32.1935 43.4036 32.4955 42.9297 32.7143C42.4609 32.9278 41.9297 33.0346 41.3359 33.0346C40.7422 33.0346 40.2083 32.9278 39.7344 32.7143C39.2604 32.4955 38.8542 32.1935 38.5156 31.808C38.1823 31.4174 37.9271 30.9617 37.75 30.4409C37.5729 29.92 37.4844 29.3549 37.4844 28.7455ZM38.9297 28.5659V28.7455C38.9297 29.1674 38.9792 29.5659 39.0781 29.9409C39.1771 30.3106 39.3255 30.6388 39.5234 30.9252C39.7266 31.2117 39.9792 31.4383 40.2812 31.6049C40.5833 31.7664 40.9349 31.8471 41.3359 31.8471C41.7318 31.8471 42.0781 31.7664 42.375 31.6049C42.6771 31.4383 42.9271 31.2117 43.125 30.9252C43.3229 30.6388 43.4714 30.3106 43.5703 29.9409C43.6745 29.5659 43.7266 29.1674 43.7266 28.7455V28.5659C43.7266 28.1492 43.6745 27.756 43.5703 27.3862C43.4714 27.0112 43.3203 26.6804 43.1172 26.394C42.9193 26.1023 42.6693 25.8731 42.3672 25.7065C42.0703 25.5398 41.7214 25.4565 41.3203 25.4565C40.9245 25.4565 40.5755 25.5398 40.2734 25.7065C39.9766 25.8731 39.7266 26.1023 39.5234 26.394C39.3255 26.6804 39.1771 27.0112 39.0781 27.3862C38.9792 27.756 38.9297 28.1492 38.9297 28.5659ZM52.1641 30.9252V24.4252H53.6172V32.8784H52.2344L52.1641 30.9252ZM52.4375 29.144L53.0391 29.1284C53.0391 29.6909 52.9792 30.2117 52.8594 30.6909C52.7448 31.1648 52.5573 31.5763 52.2969 31.9252C52.0365 32.2742 51.6953 32.5476 51.2734 32.7455C50.8516 32.9383 50.3385 33.0346 49.7344 33.0346C49.3229 33.0346 48.9453 32.9747 48.6016 32.8549C48.263 32.7351 47.9714 32.5502 47.7266 32.3002C47.4818 32.0502 47.2917 31.7247 47.1562 31.3237C47.026 30.9226 46.9609 30.4409 46.9609 29.8784V24.4252H48.4062V29.894C48.4062 30.2742 48.4479 30.5893 48.5312 30.8393C48.6198 31.0841 48.737 31.2794 48.8828 31.4252C49.0339 31.5659 49.2005 31.6648 49.3828 31.7221C49.5703 31.7794 49.763 31.808 49.9609 31.808C50.5755 31.808 51.0625 31.6909 51.4219 31.4565C51.7812 31.2169 52.0391 30.8966 52.1953 30.4955C52.3568 30.0893 52.4375 29.6388 52.4375 29.144ZM57.2656 25.7534V32.8784H55.8203V24.4252H57.2266L57.2656 25.7534ZM59.9062 24.3784L59.8984 25.7221C59.7786 25.6961 59.6641 25.6804 59.5547 25.6752C59.4505 25.6648 59.3307 25.6596 59.1953 25.6596C58.862 25.6596 58.5677 25.7117 58.3125 25.8159C58.0573 25.92 57.8411 26.0659 57.6641 26.2534C57.487 26.4409 57.3464 26.6648 57.2422 26.9252C57.1432 27.1804 57.0781 27.4617 57.0469 27.769L56.6406 28.0034C56.6406 27.4929 56.6901 27.0138 56.7891 26.5659C56.8932 26.1179 57.0521 25.7221 57.2656 25.3784C57.4792 25.0294 57.75 24.7586 58.0781 24.5659C58.4115 24.3679 58.8073 24.269 59.2656 24.269C59.3698 24.269 59.4896 24.282 59.625 24.308C59.7604 24.3289 59.8542 24.3523 59.9062 24.3784ZM62.6875 26.2299V32.8784H61.2422V24.4252H62.6094L62.6875 26.2299ZM62.3438 28.3315L61.7422 28.308C61.7474 27.7299 61.8333 27.1961 62 26.7065C62.1667 26.2117 62.401 25.782 62.7031 25.4174C63.0052 25.0528 63.3646 24.7716 63.7812 24.5737C64.2031 24.3705 64.6693 24.269 65.1797 24.269C65.5964 24.269 65.9714 24.3263 66.3047 24.4409C66.638 24.5502 66.9219 24.7273 67.1562 24.9721C67.3958 25.2169 67.5781 25.5346 67.7031 25.9252C67.8281 26.3106 67.8906 26.782 67.8906 27.3393V32.8784H66.4375V27.3237C66.4375 26.881 66.3724 26.5268 66.2422 26.2612C66.112 25.9903 65.9219 25.795 65.6719 25.6752C65.4219 25.5502 65.1146 25.4877 64.75 25.4877C64.3906 25.4877 64.0625 25.5633 63.7656 25.7143C63.474 25.8653 63.2214 26.0737 63.0078 26.3393C62.7995 26.6049 62.6354 26.9096 62.5156 27.2534C62.401 27.5919 62.3438 27.9513 62.3438 28.3315ZM75.0703 31.433V27.0815C75.0703 26.7481 75.0026 26.4591 74.8672 26.2143C74.737 25.9643 74.5391 25.7716 74.2734 25.6362C74.0078 25.5008 73.6797 25.433 73.2891 25.433C72.9245 25.433 72.6042 25.4955 72.3281 25.6205C72.0573 25.7455 71.8438 25.9096 71.6875 26.1127C71.5365 26.3159 71.4609 26.5346 71.4609 26.769H70.0156C70.0156 26.4669 70.0938 26.1674 70.25 25.8705C70.4062 25.5737 70.6302 25.3054 70.9219 25.0659C71.2188 24.8211 71.5729 24.6284 71.9844 24.4877C72.401 24.3419 72.8646 24.269 73.375 24.269C73.9896 24.269 74.5312 24.3731 75 24.5815C75.474 24.7898 75.8438 25.1049 76.1094 25.5268C76.3802 25.9435 76.5156 26.4669 76.5156 27.0971V31.0346C76.5156 31.3159 76.5391 31.6153 76.5859 31.933C76.638 32.2508 76.7135 32.5242 76.8125 32.7534V32.8784H75.3047C75.2318 32.7117 75.1745 32.4903 75.1328 32.2143C75.0911 31.933 75.0703 31.6726 75.0703 31.433ZM75.3203 27.7534L75.3359 28.769H73.875C73.4635 28.769 73.0964 28.8028 72.7734 28.8705C72.4505 28.933 72.1797 29.0294 71.9609 29.1596C71.7422 29.2898 71.5755 29.4539 71.4609 29.6518C71.3464 29.8445 71.2891 30.0711 71.2891 30.3315C71.2891 30.5971 71.349 30.8393 71.4688 31.058C71.5885 31.2768 71.7682 31.4513 72.0078 31.5815C72.2526 31.7065 72.5521 31.769 72.9062 31.769C73.349 31.769 73.7396 31.6752 74.0781 31.4877C74.4167 31.3002 74.6849 31.0711 74.8828 30.8002C75.0859 30.5294 75.1953 30.2664 75.2109 30.0112L75.8281 30.7065C75.7917 30.9252 75.6927 31.1674 75.5312 31.433C75.3698 31.6987 75.1536 31.9539 74.8828 32.1987C74.6172 32.4383 74.2995 32.6388 73.9297 32.8002C73.5651 32.9565 73.1536 33.0346 72.6953 33.0346C72.1224 33.0346 71.6198 32.9226 71.1875 32.6987C70.7604 32.4747 70.4271 32.1752 70.1875 31.8002C69.9531 31.42 69.8359 30.9955 69.8359 30.5268C69.8359 30.0737 69.9245 29.6752 70.1016 29.3315C70.2786 28.9825 70.5339 28.6935 70.8672 28.4643C71.2005 28.2299 71.6016 28.0528 72.0703 27.933C72.5391 27.8133 73.0625 27.7534 73.6406 27.7534H75.3203ZM80.2266 26.1049V32.8784H78.7734V24.4252H80.1484L80.2266 26.1049ZM79.9297 28.3315L79.2578 28.308C79.263 27.7299 79.3385 27.1961 79.4844 26.7065C79.6302 26.2117 79.8464 25.782 80.1328 25.4174C80.4193 25.0528 80.776 24.7716 81.2031 24.5737C81.6302 24.3705 82.125 24.269 82.6875 24.269C83.0833 24.269 83.4479 24.3263 83.7812 24.4409C84.1146 24.5502 84.4036 24.7247 84.6484 24.9643C84.8932 25.2039 85.0833 25.5112 85.2188 25.8862C85.3542 26.2612 85.4219 26.7143 85.4219 27.2455V32.8784H83.9766V27.3159C83.9766 26.8731 83.901 26.519 83.75 26.2534C83.6042 25.9877 83.3958 25.795 83.125 25.6752C82.8542 25.5502 82.5365 25.4877 82.1719 25.4877C81.7448 25.4877 81.388 25.5633 81.1016 25.7143C80.8151 25.8653 80.5859 26.0737 80.4141 26.3393C80.2422 26.6049 80.1172 26.9096 80.0391 27.2534C79.9661 27.5919 79.9297 27.9513 79.9297 28.3315ZM85.4062 27.5346L84.4375 27.8315C84.4427 27.3679 84.5182 26.9226 84.6641 26.4955C84.8151 26.0685 85.0312 25.6883 85.3125 25.3549C85.599 25.0216 85.9505 24.7586 86.3672 24.5659C86.7839 24.3679 87.2604 24.269 87.7969 24.269C88.25 24.269 88.651 24.3289 89 24.4487C89.3542 24.5685 89.651 24.7534 89.8906 25.0034C90.1354 25.2481 90.3203 25.5633 90.4453 25.9487C90.5703 26.3341 90.6328 26.7924 90.6328 27.3237V32.8784H89.1797V27.308C89.1797 26.8341 89.1042 26.4669 88.9531 26.2065C88.8073 25.9409 88.599 25.756 88.3281 25.6518C88.0625 25.5424 87.7448 25.4877 87.375 25.4877C87.0573 25.4877 86.776 25.5424 86.5312 25.6518C86.2865 25.7612 86.0807 25.9122 85.9141 26.1049C85.7474 26.2924 85.6198 26.5086 85.5312 26.7534C85.4479 26.9981 85.4062 27.2586 85.4062 27.5346ZM96.3281 33.0346C95.7396 33.0346 95.2057 32.9356 94.7266 32.7377C94.2526 32.5346 93.8438 32.2508 93.5 31.8862C93.1615 31.5216 92.901 31.0893 92.7188 30.5893C92.5365 30.0893 92.4453 29.5424 92.4453 28.9487V28.6205C92.4453 27.933 92.5469 27.3211 92.75 26.7846C92.9531 26.2429 93.2292 25.7846 93.5781 25.4096C93.9271 25.0346 94.3229 24.7508 94.7656 24.558C95.2083 24.3653 95.6667 24.269 96.1406 24.269C96.7448 24.269 97.2656 24.3731 97.7031 24.5815C98.1458 24.7898 98.5078 25.0815 98.7891 25.4565C99.0703 25.8263 99.2786 26.2638 99.4141 26.769C99.5495 27.269 99.6172 27.8159 99.6172 28.4096V29.058H93.3047V27.8784H98.1719V27.769C98.151 27.394 98.0729 27.0294 97.9375 26.6752C97.8073 26.3211 97.599 26.0294 97.3125 25.8002C97.026 25.5711 96.6354 25.4565 96.1406 25.4565C95.8125 25.4565 95.5104 25.5268 95.2344 25.6674C94.9583 25.8028 94.7214 26.006 94.5234 26.2768C94.3255 26.5476 94.1719 26.8784 94.0625 27.269C93.9531 27.6596 93.8984 28.1101 93.8984 28.6205V28.9487C93.8984 29.3497 93.9531 29.7273 94.0625 30.0815C94.1771 30.4304 94.3411 30.7377 94.5547 31.0034C94.7734 31.269 95.0365 31.4773 95.3438 31.6284C95.6562 31.7794 96.0104 31.8549 96.4062 31.8549C96.9167 31.8549 97.349 31.7508 97.7031 31.5424C98.0573 31.3341 98.3672 31.0554 98.6328 30.7065L99.5078 31.4018C99.3255 31.6778 99.0938 31.9409 98.8125 32.1909C98.5312 32.4409 98.1849 32.644 97.7734 32.8002C97.3672 32.9565 96.8854 33.0346 96.3281 33.0346ZM102.75 26.2299V32.8784H101.305V24.4252H102.672L102.75 26.2299ZM102.406 28.3315L101.805 28.308C101.81 27.7299 101.896 27.1961 102.062 26.7065C102.229 26.2117 102.464 25.782 102.766 25.4174C103.068 25.0528 103.427 24.7716 103.844 24.5737C104.266 24.3705 104.732 24.269 105.242 24.269C105.659 24.269 106.034 24.3263 106.367 24.4409C106.701 24.5502 106.984 24.7273 107.219 24.9721C107.458 25.2169 107.641 25.5346 107.766 25.9252C107.891 26.3106 107.953 26.782 107.953 27.3393V32.8784H106.5V27.3237C106.5 26.881 106.435 26.5268 106.305 26.2612C106.174 25.9903 105.984 25.795 105.734 25.6752C105.484 25.5502 105.177 25.4877 104.812 25.4877C104.453 25.4877 104.125 25.5633 103.828 25.7143C103.536 25.8653 103.284 26.0737 103.07 26.3393C102.862 26.6049 102.698 26.9096 102.578 27.2534C102.464 27.5919 102.406 27.9513 102.406 28.3315ZM113.688 24.4252V25.5346H109.117V24.4252H113.688ZM110.664 22.3705H112.109V30.7846C112.109 31.0711 112.154 31.2872 112.242 31.433C112.331 31.5789 112.445 31.6752 112.586 31.7221C112.727 31.769 112.878 31.7924 113.039 31.7924C113.159 31.7924 113.284 31.782 113.414 31.7612C113.549 31.7351 113.651 31.7143 113.719 31.6987L113.727 32.8784C113.612 32.9148 113.461 32.9487 113.273 32.9799C113.091 33.0164 112.87 33.0346 112.609 33.0346C112.255 33.0346 111.93 32.9643 111.633 32.8237C111.336 32.683 111.099 32.4487 110.922 32.1205C110.75 31.7872 110.664 31.3393 110.664 30.7768V22.3705Z" fill="white"/>
<path d="M2.60937 1.45655C2.51135 1.45382 2.41346 1.46608 2.31843 1.49298C1.03253 1.86092 0.237214 2.9355 0.0518929 4.19545C-0.133366 5.45541 0.18795 6.87674 0.847401 8.26451C2.14616 10.9975 4.81754 13.6542 8.24344 14.2674C7.89138 13.7976 7.54998 13.2713 7.22213 12.7029C4.77411 11.824 2.82782 9.74207 1.84574 7.67548C1.268 6.45972 1.03956 5.26375 1.16671 4.39907C1.29392 3.5344 1.67328 2.97697 2.59933 2.71196C2.60341 2.71077 2.60359 2.70958 2.6051 2.70825C2.61169 2.70266 2.60102 2.69825 2.6051 2.70825C2.6078 2.71411 2.61156 2.71927 2.61614 2.72342C2.64922 2.7579 2.72214 2.88005 2.75465 3.08283C2.81967 3.48867 2.72873 4.17315 2.24412 4.87847L3.14111 5.64357C3.79491 4.69191 3.99774 3.6797 3.86658 2.86166C3.80106 2.45261 3.65346 2.08097 3.38787 1.80414C3.18868 1.59654 2.90169 1.46382 2.60937 1.45655ZM22.3906 1.45655C22.0983 1.46382 21.8114 1.59661 21.6121 1.80421C21.3465 2.08111 21.1989 2.45268 21.1334 2.86173C21.0023 3.67977 21.2051 4.69191 21.8588 5.64364L22.7559 4.87854C22.2713 4.17322 22.1803 3.48874 22.2453 3.0829C22.2779 2.88012 22.3508 2.75797 22.3839 2.72349C22.3884 2.71932 22.3922 2.71416 22.3949 2.70832C22.399 2.69832 22.3883 2.70273 22.3949 2.70832C22.3964 2.70965 22.3966 2.71084 22.4007 2.71203C23.3267 2.97704 23.7061 3.53433 23.8333 4.39907C23.9604 5.26375 23.732 6.45972 23.1543 7.67548C22.1722 9.74207 20.2259 11.824 17.7779 12.7029C17.4501 13.2713 17.1086 13.7976 16.7566 14.2674C20.1825 13.6542 22.8538 10.9975 24.1526 8.26451C24.8121 6.87674 25.1334 5.45541 24.9481 4.19545C24.7628 2.93543 23.9675 1.86092 22.6816 1.49298C22.5865 1.46608 22.4887 1.45382 22.3906 1.45655ZM5.05928 1.99587C5.19395 4.55039 6.11108 7.80442 7.35223 10.4443C8.02417 11.8737 8.78786 13.1248 9.53373 13.9884C10.2797 14.8521 10.9938 15.2813 11.4959 15.2813H13.5041C14.0062 15.2813 14.7203 14.8521 15.4663 13.9884C16.2121 13.1248 16.9758 11.8737 17.6478 10.4443C18.8889 7.80435 19.806 4.55046 19.9407 1.99587H5.05928ZM11.0566 16.54V17.6587H13.9434V16.54H11.0566ZM11.4611 18.9174C11.3068 20.7331 10.658 22.964 9.92746 24.2316H15.0725C14.342 22.964 13.6932 20.7331 13.5389 18.9174H11.4611ZM9.04836 25.4902V26.4691H15.9516V25.4902H9.04836ZM7.04014 27.7277V34.3005H17.9599V27.7277H7.04014ZM8.48355 29.336H16.5164V32.6923H8.48355V29.336Z" fill="#F3F73A"/>
</svg>
